<mxfile host="65bd71144e">
    <diagram id="7oRHzQaG_jzZUdF09JJZ" name="Page-1">
        <mxGraphModel dx="4259" dy="876" grid="1" gridSize="10" guides="1" tooltips="1" connect="1" arrows="1" fold="1" page="1" pageScale="1" pageWidth="1200" pageHeight="1920" math="0" shadow="0">
            <root>
                <mxCell id="0"/>
                <mxCell id="1" parent="0"/>
                <mxCell id="2" value="user" style="swimlane;fontStyle=0;childLayout=stackLayout;horizontal=1;startSize=30;horizontalStack=0;resizeParent=1;resizeParentMax=0;resizeLast=0;collapsible=1;marginBottom=0;whiteSpace=wrap;html=1;" parent="1" vertex="1">
                    <mxGeometry x="460" y="180" width="150" height="210" as="geometry"/>
                </mxCell>
                <mxCell id="3" value="id" style="text;strokeColor=none;fillColor=none;align=left;verticalAlign=middle;spacingLeft=4;spacingRight=4;overflow=hidden;points=[[0,0.5],[1,0.5]];portConstraint=eastwest;rotatable=0;whiteSpace=wrap;html=1;" parent="2" vertex="1">
                    <mxGeometry y="30" width="150" height="30" as="geometry"/>
                </mxCell>
                <mxCell id="24" value="username" style="text;strokeColor=none;fillColor=none;align=left;verticalAlign=middle;spacingLeft=4;spacingRight=4;overflow=hidden;points=[[0,0.5],[1,0.5]];portConstraint=eastwest;rotatable=0;whiteSpace=wrap;html=1;" parent="2" vertex="1">
                    <mxGeometry y="60" width="150" height="30" as="geometry"/>
                </mxCell>
                <mxCell id="5" value="email" style="text;strokeColor=none;fillColor=none;align=left;verticalAlign=middle;spacingLeft=4;spacingRight=4;overflow=hidden;points=[[0,0.5],[1,0.5]];portConstraint=eastwest;rotatable=0;whiteSpace=wrap;html=1;" parent="2" vertex="1">
                    <mxGeometry y="90" width="150" height="30" as="geometry"/>
                </mxCell>
                <mxCell id="6" value="password" style="text;strokeColor=none;fillColor=none;align=left;verticalAlign=middle;spacingLeft=4;spacingRight=4;overflow=hidden;points=[[0,0.5],[1,0.5]];portConstraint=eastwest;rotatable=0;whiteSpace=wrap;html=1;" parent="2" vertex="1">
                    <mxGeometry y="120" width="150" height="30" as="geometry"/>
                </mxCell>
                <mxCell id="29" value="cart" style="text;strokeColor=none;fillColor=none;align=left;verticalAlign=middle;spacingLeft=4;spacingRight=4;overflow=hidden;points=[[0,0.5],[1,0.5]];portConstraint=eastwest;rotatable=0;whiteSpace=wrap;html=1;" parent="2" vertex="1">
                    <mxGeometry y="150" width="150" height="30" as="geometry"/>
                </mxCell>
                <mxCell id="22" value="isVendor" style="text;strokeColor=none;fillColor=none;align=left;verticalAlign=middle;spacingLeft=4;spacingRight=4;overflow=hidden;points=[[0,0.5],[1,0.5]];portConstraint=eastwest;rotatable=0;whiteSpace=wrap;html=1;" parent="2" vertex="1">
                    <mxGeometry y="180" width="150" height="30" as="geometry"/>
                </mxCell>
                <mxCell id="13" value="vendor" style="swimlane;fontStyle=0;childLayout=stackLayout;horizontal=1;startSize=30;horizontalStack=0;resizeParent=1;resizeParentMax=0;resizeLast=0;collapsible=1;marginBottom=0;whiteSpace=wrap;html=1;" parent="1" vertex="1">
                    <mxGeometry x="155" y="290" width="140" height="210" as="geometry"/>
                </mxCell>
                <mxCell id="14" value="id" style="text;strokeColor=none;fillColor=none;align=left;verticalAlign=middle;spacingLeft=4;spacingRight=4;overflow=hidden;points=[[0,0.5],[1,0.5]];portConstraint=eastwest;rotatable=0;whiteSpace=wrap;html=1;" parent="13" vertex="1">
                    <mxGeometry y="30" width="140" height="30" as="geometry"/>
                </mxCell>
                <mxCell id="15" value="user_id" style="text;strokeColor=none;fillColor=none;align=left;verticalAlign=middle;spacingLeft=4;spacingRight=4;overflow=hidden;points=[[0,0.5],[1,0.5]];portConstraint=eastwest;rotatable=0;whiteSpace=wrap;html=1;" parent="13" vertex="1">
                    <mxGeometry y="60" width="140" height="30" as="geometry"/>
                </mxCell>
                <mxCell id="17" value="name" style="text;strokeColor=none;fillColor=none;align=left;verticalAlign=middle;spacingLeft=4;spacingRight=4;overflow=hidden;points=[[0,0.5],[1,0.5]];portConstraint=eastwest;rotatable=0;whiteSpace=wrap;html=1;" parent="13" vertex="1">
                    <mxGeometry y="90" width="140" height="30" as="geometry"/>
                </mxCell>
                <mxCell id="65" value="description" style="text;strokeColor=none;fillColor=none;align=left;verticalAlign=middle;spacingLeft=4;spacingRight=4;overflow=hidden;points=[[0,0.5],[1,0.5]];portConstraint=eastwest;rotatable=0;whiteSpace=wrap;html=1;" parent="13" vertex="1">
                    <mxGeometry y="120" width="140" height="30" as="geometry"/>
                </mxCell>
                <mxCell id="20" value="product_id" style="text;strokeColor=none;fillColor=none;align=left;verticalAlign=middle;spacingLeft=4;spacingRight=4;overflow=hidden;points=[[0,0.5],[1,0.5]];portConstraint=eastwest;rotatable=0;whiteSpace=wrap;html=1;" parent="13" vertex="1">
                    <mxGeometry y="150" width="140" height="30" as="geometry"/>
                </mxCell>
                <mxCell id="31" value="sale_id" style="text;strokeColor=none;fillColor=none;align=left;verticalAlign=middle;spacingLeft=4;spacingRight=4;overflow=hidden;points=[[0,0.5],[1,0.5]];portConstraint=eastwest;rotatable=0;whiteSpace=wrap;html=1;" parent="13" vertex="1">
                    <mxGeometry y="180" width="140" height="30" as="geometry"/>
                </mxCell>
                <mxCell id="23" style="edgeStyle=none;html=1;exitX=1;exitY=0.5;exitDx=0;exitDy=0;entryX=0;entryY=0.5;entryDx=0;entryDy=0;" parent="1" source="15" target="3" edge="1">
                    <mxGeometry relative="1" as="geometry"/>
                </mxCell>
                <mxCell id="25" value="product" style="swimlane;fontStyle=0;childLayout=stackLayout;horizontal=1;startSize=30;horizontalStack=0;resizeParent=1;resizeParentMax=0;resizeLast=0;collapsible=1;marginBottom=0;whiteSpace=wrap;html=1;" parent="1" vertex="1">
                    <mxGeometry x="465" y="710" width="140" height="150" as="geometry"/>
                </mxCell>
                <mxCell id="26" value="id" style="text;strokeColor=none;fillColor=none;align=left;verticalAlign=middle;spacingLeft=4;spacingRight=4;overflow=hidden;points=[[0,0.5],[1,0.5]];portConstraint=eastwest;rotatable=0;whiteSpace=wrap;html=1;" parent="25" vertex="1">
                    <mxGeometry y="30" width="140" height="30" as="geometry"/>
                </mxCell>
                <mxCell id="27" value="price" style="text;strokeColor=none;fillColor=none;align=left;verticalAlign=middle;spacingLeft=4;spacingRight=4;overflow=hidden;points=[[0,0.5],[1,0.5]];portConstraint=eastwest;rotatable=0;whiteSpace=wrap;html=1;" parent="25" vertex="1">
                    <mxGeometry y="60" width="140" height="30" as="geometry"/>
                </mxCell>
                <mxCell id="28" value="count" style="text;strokeColor=none;fillColor=none;align=left;verticalAlign=middle;spacingLeft=4;spacingRight=4;overflow=hidden;points=[[0,0.5],[1,0.5]];portConstraint=eastwest;rotatable=0;whiteSpace=wrap;html=1;" parent="25" vertex="1">
                    <mxGeometry y="90" width="140" height="30" as="geometry"/>
                </mxCell>
                <mxCell id="30" value="vendor_id" style="text;strokeColor=none;fillColor=none;align=left;verticalAlign=middle;spacingLeft=4;spacingRight=4;overflow=hidden;points=[[0,0.5],[1,0.5]];portConstraint=eastwest;rotatable=0;whiteSpace=wrap;html=1;" parent="25" vertex="1">
                    <mxGeometry y="120" width="140" height="30" as="geometry"/>
                </mxCell>
                <mxCell id="47" style="edgeStyle=none;html=1;exitX=1;exitY=0.5;exitDx=0;exitDy=0;entryX=0;entryY=0.25;entryDx=0;entryDy=0;" parent="1" source="20" target="25" edge="1">
                    <mxGeometry relative="1" as="geometry"/>
                </mxCell>
                <mxCell id="66" value="" style="shape=table;html=1;whiteSpace=wrap;startSize=0;container=1;collapsible=0;childLayout=tableLayout;" parent="1" vertex="1">
                    <mxGeometry x="1290" y="120" width="1040" height="760" as="geometry"/>
                </mxCell>
                <mxCell id="67" value="" style="shape=tableRow;horizontal=0;startSize=0;swimlaneHead=0;swimlaneBody=0;top=0;left=0;bottom=0;right=0;collapsible=0;dropTarget=0;fillColor=none;points=[[0,0.5],[1,0.5]];portConstraint=eastwest;" parent="66" vertex="1">
                    <mxGeometry width="1040" height="254" as="geometry"/>
                </mxCell>
                <mxCell id="68" value="" style="shape=partialRectangle;html=1;whiteSpace=wrap;connectable=0;fillColor=none;top=0;left=0;bottom=0;right=0;overflow=hidden;" parent="67" vertex="1">
                    <mxGeometry width="346" height="254" as="geometry">
                        <mxRectangle width="346" height="254" as="alternateBounds"/>
                    </mxGeometry>
                </mxCell>
                <mxCell id="69" value="" style="shape=partialRectangle;html=1;whiteSpace=wrap;connectable=0;fillColor=none;top=0;left=0;bottom=0;right=0;overflow=hidden;" parent="67" vertex="1">
                    <mxGeometry x="346" width="348" height="254" as="geometry">
                        <mxRectangle width="348" height="254" as="alternateBounds"/>
                    </mxGeometry>
                </mxCell>
                <mxCell id="70" value="" style="shape=partialRectangle;html=1;whiteSpace=wrap;connectable=0;fillColor=none;top=0;left=0;bottom=0;right=0;overflow=hidden;" parent="67" vertex="1">
                    <mxGeometry x="694" width="346" height="254" as="geometry">
                        <mxRectangle width="346" height="254" as="alternateBounds"/>
                    </mxGeometry>
                </mxCell>
                <mxCell id="71" value="" style="shape=tableRow;horizontal=0;startSize=0;swimlaneHead=0;swimlaneBody=0;top=0;left=0;bottom=0;right=0;collapsible=0;dropTarget=0;fillColor=none;points=[[0,0.5],[1,0.5]];portConstraint=eastwest;" parent="66" vertex="1">
                    <mxGeometry y="254" width="1040" height="252" as="geometry"/>
                </mxCell>
                <mxCell id="72" value="" style="shape=partialRectangle;html=1;whiteSpace=wrap;connectable=0;fillColor=none;top=0;left=0;bottom=0;right=0;overflow=hidden;" parent="71" vertex="1">
                    <mxGeometry width="346" height="252" as="geometry">
                        <mxRectangle width="346" height="252" as="alternateBounds"/>
                    </mxGeometry>
                </mxCell>
                <mxCell id="73" value="" style="shape=partialRectangle;html=1;whiteSpace=wrap;connectable=0;fillColor=none;top=0;left=0;bottom=0;right=0;overflow=hidden;" parent="71" vertex="1">
                    <mxGeometry x="346" width="348" height="252" as="geometry">
                        <mxRectangle width="348" height="252" as="alternateBounds"/>
                    </mxGeometry>
                </mxCell>
                <mxCell id="74" value="&lt;span style=&quot;color: rgba(0, 0, 0, 0); font-family: monospace; font-size: 0px; text-align: start;&quot;&gt;%3CmxGraphModel%3E%3Croot%3E%3CmxCell%20id%3D%220%22%2F%3E%3CmxCell%20id%3D%221%22%20parent%3D%220%22%2F%3E%3CmxCell%20id%3D%222%22%20value%3D%22%26lt%3Bh1%26gt%3Bproduct%20list%26lt%3B%2Fh1%26gt%3B%26lt%3Bdiv%26gt%3BA%26lt%3B%2Fdiv%26gt%3B%26lt%3Bdiv%26gt%3B%26lt%3Bspan%20style%3D%26quot%3Bwhite-space%3A%20pre%3B%26quot%3B%26gt%3B%26%239%3B%26lt%3B%2Fspan%26gt%3Bprice%2C%20quant%26lt%3Bbr%26gt%3B%26lt%3B%2Fdiv%26gt%3B%26lt%3Bdiv%26gt%3B%26lt%3Bspan%20style%3D%26quot%3Bwhite-space%3A%20pre%3B%26quot%3B%26gt%3B%26%239%3B%26lt%3B%2Fspan%26gt%3BUPDATE%26lt%3Bbr%26gt%3B%26lt%3B%2Fdiv%26gt%3B%26lt%3Bdiv%26gt%3B%26lt%3Bspan%20style%3D%26quot%3Bwhite-space%3A%20pre%3B%26quot%3B%26gt%3B%26%239%3B%26lt%3B%2Fspan%26gt%3BDELETE%26lt%3Bbr%26gt%3B%26lt%3B%2Fdiv%26gt%3B%26lt%3Bdiv%26gt%3Bb%26lt%3B%2Fdiv%26gt%3B%26lt%3Bdiv%26gt%3B%26lt%3Bspan%20style%3D%26quot%3Bwhite-space%3A%20pre%3B%26quot%3B%26gt%3B%26%239%3B%26lt%3B%2Fspan%26gt%3Bprice%2C%20quant%26lt%3Bbr%26gt%3B%26lt%3B%2Fdiv%26gt%3B%26lt%3Bdiv%26gt%3B%26lt%3Bspan%20style%3D%26quot%3Bwhite-space%3A%20pre%3B%26quot%3B%26gt%3B%26%239%3B%26lt%3B%2Fspan%26gt%3BUPDATE%26lt%3Bbr%26gt%3B%26lt%3B%2Fdiv%26gt%3B%26lt%3Bdiv%26gt%3B%26lt%3Bspan%20style%3D%26quot%3Bwhite-space%3A%20pre%3B%26quot%3B%26gt%3B%26%239%3B%26lt%3B%2Fspan%26gt%3BDELETE%26lt%3Bbr%26gt%3B%26lt%3B%2Fdiv%26gt%3B%26lt%3Bdiv%26gt%3Bc%26lt%3B%2Fdiv%26gt%3B%26lt%3Bdiv%26gt%3B%26lt%3Bspan%20style%3D%26quot%3Bwhite-space%3A%20pre%3B%26quot%3B%26gt%3B%26%239%3B%26lt%3B%2Fspan%26gt%3Bprice%2C%20quant%26lt%3Bbr%26gt%3B%26lt%3B%2Fdiv%26gt%3B%26lt%3Bdiv%26gt%3B%26lt%3Bspan%20style%3D%26quot%3Bwhite-space%3A%20pre%3B%26quot%3B%26gt%3B%26%239%3B%26lt%3B%2Fspan%26gt%3BUPDATE%26lt%3Bbr%26gt%3B%26lt%3B%2Fdiv%26gt%3B%26lt%3Bdiv%26gt%3B%26lt%3Bspan%20style%3D%26quot%3Bwhite-space%3A%20pre%3B%26quot%3B%26gt%3B%26%239%3B%26lt%3B%2Fspan%26gt%3BDELETE%26lt%3Bbr%26gt%3B%26lt%3B%2Fdiv%26gt%3B%22%20style%3D%22text%3Bhtml%3D1%3BstrokeColor%3Dnone%3BfillColor%3Dnone%3Bspacing%3D5%3BspacingTop%3D-20%3BwhiteSpace%3Dwrap%3Boverflow%3Dhidden%3Brounded%3D0%3BfontSize%3D12%3B%22%20vertex%3D%221%22%20parent%3D%221%22%3E%3CmxGeometry%20x%3D%22840%22%20y%3D%22940%22%20width%3D%22190%22%20height%3D%22250%22%20as%3D%22geometry%22%2F%3E%3C%2FmxCell%3E%3C%2Froot%3E%3C%2FmxGraphModel%3E&lt;/span&gt;" style="shape=partialRectangle;html=1;whiteSpace=wrap;connectable=0;fillColor=none;top=0;left=0;bottom=0;right=0;overflow=hidden;" parent="71" vertex="1">
                    <mxGeometry x="694" width="346" height="252" as="geometry">
                        <mxRectangle width="346" height="252" as="alternateBounds"/>
                    </mxGeometry>
                </mxCell>
                <mxCell id="75" value="" style="shape=tableRow;horizontal=0;startSize=0;swimlaneHead=0;swimlaneBody=0;top=0;left=0;bottom=0;right=0;collapsible=0;dropTarget=0;fillColor=none;points=[[0,0.5],[1,0.5]];portConstraint=eastwest;" parent="66" vertex="1">
                    <mxGeometry y="506" width="1040" height="254" as="geometry"/>
                </mxCell>
                <mxCell id="76" value="" style="shape=partialRectangle;html=1;whiteSpace=wrap;connectable=0;fillColor=none;top=0;left=0;bottom=0;right=0;overflow=hidden;" parent="75" vertex="1">
                    <mxGeometry width="346" height="254" as="geometry">
                        <mxRectangle width="346" height="254" as="alternateBounds"/>
                    </mxGeometry>
                </mxCell>
                <mxCell id="77" value="" style="shape=partialRectangle;html=1;whiteSpace=wrap;connectable=0;fillColor=none;top=0;left=0;bottom=0;right=0;overflow=hidden;" parent="75" vertex="1">
                    <mxGeometry x="346" width="348" height="254" as="geometry">
                        <mxRectangle width="348" height="254" as="alternateBounds"/>
                    </mxGeometry>
                </mxCell>
                <mxCell id="78" value="" style="shape=partialRectangle;html=1;whiteSpace=wrap;connectable=0;fillColor=none;top=0;left=0;bottom=0;right=0;overflow=hidden;pointerEvents=1;" parent="75" vertex="1">
                    <mxGeometry x="694" width="346" height="254" as="geometry">
                        <mxRectangle width="346" height="254" as="alternateBounds"/>
                    </mxGeometry>
                </mxCell>
                <mxCell id="80" value="sales" style="swimlane;fontStyle=0;childLayout=stackLayout;horizontal=1;startSize=30;horizontalStack=0;resizeParent=1;resizeParentMax=0;resizeLast=0;collapsible=1;marginBottom=0;whiteSpace=wrap;html=1;" parent="1" vertex="1">
                    <mxGeometry x="465" y="470" width="140" height="150" as="geometry"/>
                </mxCell>
                <mxCell id="81" value="id&lt;span style=&quot;white-space: pre;&quot;&gt;&#9;&lt;/span&gt;" style="text;strokeColor=none;fillColor=none;align=left;verticalAlign=middle;spacingLeft=4;spacingRight=4;overflow=hidden;points=[[0,0.5],[1,0.5]];portConstraint=eastwest;rotatable=0;whiteSpace=wrap;html=1;" parent="80" vertex="1">
                    <mxGeometry y="30" width="140" height="30" as="geometry"/>
                </mxCell>
                <mxCell id="82" value="product_id" style="text;strokeColor=none;fillColor=none;align=left;verticalAlign=middle;spacingLeft=4;spacingRight=4;overflow=hidden;points=[[0,0.5],[1,0.5]];portConstraint=eastwest;rotatable=0;whiteSpace=wrap;html=1;" parent="80" vertex="1">
                    <mxGeometry y="60" width="140" height="30" as="geometry"/>
                </mxCell>
                <mxCell id="83" value="quantity" style="text;strokeColor=none;fillColor=none;align=left;verticalAlign=middle;spacingLeft=4;spacingRight=4;overflow=hidden;points=[[0,0.5],[1,0.5]];portConstraint=eastwest;rotatable=0;whiteSpace=wrap;html=1;" parent="80" vertex="1">
                    <mxGeometry y="90" width="140" height="30" as="geometry"/>
                </mxCell>
                <mxCell id="84" value="cost" style="text;strokeColor=none;fillColor=none;align=left;verticalAlign=middle;spacingLeft=4;spacingRight=4;overflow=hidden;points=[[0,0.5],[1,0.5]];portConstraint=eastwest;rotatable=0;whiteSpace=wrap;html=1;" parent="80" vertex="1">
                    <mxGeometry y="120" width="140" height="30" as="geometry"/>
                </mxCell>
                <mxCell id="88" value="&lt;h1&gt;login&lt;/h1&gt;&lt;div&gt;&lt;br&gt;&lt;/div&gt;&lt;div&gt;username&lt;/div&gt;&lt;div&gt;pass&lt;/div&gt;&lt;div&gt;&lt;br&gt;&lt;/div&gt;" style="text;html=1;strokeColor=none;fillColor=none;spacing=5;spacingTop=-20;whiteSpace=wrap;overflow=hidden;rounded=0;" parent="1" vertex="1">
                    <mxGeometry x="1290" y="130" width="190" height="200" as="geometry"/>
                </mxCell>
                <mxCell id="89" value="&lt;h1&gt;sign up&lt;/h1&gt;&lt;div&gt;name&lt;/div&gt;&lt;div&gt;username&lt;/div&gt;&lt;div&gt;pass&lt;/div&gt;&lt;div&gt;vendor: Y/N&lt;/div&gt;&lt;div&gt;&lt;br&gt;&lt;/div&gt;" style="text;html=1;strokeColor=none;fillColor=none;spacing=5;spacingTop=-20;whiteSpace=wrap;overflow=hidden;rounded=0;" parent="1" vertex="1">
                    <mxGeometry x="1450" y="130" width="190" height="240" as="geometry"/>
                </mxCell>
                <mxCell id="90" style="edgeStyle=none;html=1;exitX=1;exitY=0.5;exitDx=0;exitDy=0;entryX=0;entryY=0.5;entryDx=0;entryDy=0;" parent="1" source="31" target="81" edge="1">
                    <mxGeometry relative="1" as="geometry"/>
                </mxCell>
                <mxCell id="92" value="" style="endArrow=classic;html=1;exitX=1;exitY=0.5;exitDx=0;exitDy=0;entryX=1;entryY=0.5;entryDx=0;entryDy=0;" parent="1" source="82" target="26" edge="1">
                    <mxGeometry width="50" height="50" relative="1" as="geometry">
                        <mxPoint x="640" y="500" as="sourcePoint"/>
                        <mxPoint x="690" y="450" as="targetPoint"/>
                        <Array as="points">
                            <mxPoint x="700" y="515"/>
                            <mxPoint x="700" y="715"/>
                        </Array>
                    </mxGeometry>
                </mxCell>
                <mxCell id="93" value="&lt;h1&gt;CART&lt;/h1&gt;&lt;div&gt;&lt;br&gt;&lt;/div&gt;" style="text;html=1;strokeColor=none;fillColor=none;spacing=5;spacingTop=-20;whiteSpace=wrap;overflow=hidden;rounded=0;" parent="1" vertex="1">
                    <mxGeometry x="1490" y="380" width="190" height="130" as="geometry"/>
                </mxCell>
                <mxCell id="94" value="&lt;h1&gt;VEND A (b,c,d)&lt;/h1&gt;&lt;div&gt;PROD 1&lt;/div&gt;&lt;div&gt;&lt;span style=&quot;white-space: pre;&quot;&gt;&#9;&lt;/span&gt;price, quant, description&lt;br&gt;&lt;/div&gt;&lt;div&gt;PROD 2&lt;/div&gt;&lt;div&gt;&lt;span style=&quot;white-space: pre;&quot;&gt;&#9;&lt;/span&gt;price, quant, description&lt;br&gt;&lt;/div&gt;&lt;div&gt;PROD 3&lt;/div&gt;&lt;div&gt;&lt;span style=&quot;white-space: pre;&quot;&gt;&#9;&lt;/span&gt;price, quant, descrip&lt;br&gt;&lt;/div&gt;&lt;div&gt;PROD 4&lt;/div&gt;&lt;div&gt;etc....&lt;/div&gt;" style="text;html=1;strokeColor=none;fillColor=none;spacing=5;spacingTop=-20;whiteSpace=wrap;overflow=hidden;rounded=0;" parent="1" vertex="1">
                    <mxGeometry x="1290" y="630" width="190" height="250" as="geometry"/>
                </mxCell>
                <mxCell id="95" value="cart" style="swimlane;fontStyle=0;childLayout=stackLayout;horizontal=1;startSize=30;horizontalStack=0;resizeParent=1;resizeParentMax=0;resizeLast=0;collapsible=1;marginBottom=0;whiteSpace=wrap;html=1;" parent="1" vertex="1">
                    <mxGeometry x="740" y="300" width="140" height="150" as="geometry"/>
                </mxCell>
                <mxCell id="96" value="id" style="text;strokeColor=none;fillColor=none;align=left;verticalAlign=middle;spacingLeft=4;spacingRight=4;overflow=hidden;points=[[0,0.5],[1,0.5]];portConstraint=eastwest;rotatable=0;whiteSpace=wrap;html=1;" parent="95" vertex="1">
                    <mxGeometry y="30" width="140" height="30" as="geometry"/>
                </mxCell>
                <mxCell id="97" value="product_id" style="text;strokeColor=none;fillColor=none;align=left;verticalAlign=middle;spacingLeft=4;spacingRight=4;overflow=hidden;points=[[0,0.5],[1,0.5]];portConstraint=eastwest;rotatable=0;whiteSpace=wrap;html=1;" parent="95" vertex="1">
                    <mxGeometry y="60" width="140" height="30" as="geometry"/>
                </mxCell>
                <mxCell id="98" value="quantity" style="text;strokeColor=none;fillColor=none;align=left;verticalAlign=middle;spacingLeft=4;spacingRight=4;overflow=hidden;points=[[0,0.5],[1,0.5]];portConstraint=eastwest;rotatable=0;whiteSpace=wrap;html=1;" parent="95" vertex="1">
                    <mxGeometry y="90" width="140" height="30" as="geometry"/>
                </mxCell>
                <mxCell id="99" value="cost" style="text;strokeColor=none;fillColor=none;align=left;verticalAlign=middle;spacingLeft=4;spacingRight=4;overflow=hidden;points=[[0,0.5],[1,0.5]];portConstraint=eastwest;rotatable=0;whiteSpace=wrap;html=1;" parent="95" vertex="1">
                    <mxGeometry y="120" width="140" height="30" as="geometry"/>
                </mxCell>
                <mxCell id="100" value="&lt;h1&gt;CART&lt;/h1&gt;" style="text;html=1;strokeColor=none;fillColor=none;spacing=5;spacingTop=-20;whiteSpace=wrap;overflow=hidden;rounded=0;" parent="1" vertex="1">
                    <mxGeometry x="1490" y="630" width="190" height="120" as="geometry"/>
                </mxCell>
                <mxCell id="101" style="edgeStyle=none;html=1;exitX=1;exitY=0.5;exitDx=0;exitDy=0;entryX=0;entryY=0.5;entryDx=0;entryDy=0;" parent="1" source="29" target="96" edge="1">
                    <mxGeometry relative="1" as="geometry"/>
                </mxCell>
                <mxCell id="103" style="edgeStyle=none;html=1;exitX=1;exitY=0.5;exitDx=0;exitDy=0;entryX=1;entryY=0.5;entryDx=0;entryDy=0;" parent="1" source="99" target="27" edge="1">
                    <mxGeometry relative="1" as="geometry">
                        <Array as="points">
                            <mxPoint x="970" y="435"/>
                            <mxPoint x="890" y="745"/>
                        </Array>
                    </mxGeometry>
                </mxCell>
                <mxCell id="105" style="edgeStyle=none;html=1;exitX=1;exitY=0.5;exitDx=0;exitDy=0;" parent="1" source="97" edge="1">
                    <mxGeometry relative="1" as="geometry">
                        <mxPoint x="700" y="710" as="targetPoint"/>
                        <Array as="points">
                            <mxPoint x="960" y="380"/>
                            <mxPoint x="870" y="710"/>
                        </Array>
                    </mxGeometry>
                </mxCell>
                <mxCell id="106" value="&lt;b&gt;&lt;font style=&quot;font-size: 22px;&quot;&gt;consumer path&lt;/font&gt;&lt;/b&gt;" style="text;html=1;strokeColor=none;fillColor=none;align=center;verticalAlign=middle;whiteSpace=wrap;rounded=0;" parent="1" vertex="1">
                    <mxGeometry x="1060" y="350" width="275" height="70" as="geometry"/>
                </mxCell>
                <mxCell id="107" value="Vendor path" style="text;html=1;strokeColor=none;fillColor=none;align=center;verticalAlign=middle;whiteSpace=wrap;rounded=0;fontSize=22;" parent="1" vertex="1">
                    <mxGeometry x="2090" y="90" width="155" height="30" as="geometry"/>
                </mxCell>
                <mxCell id="110" value="&lt;ul&gt;&lt;li&gt;Vendors have many products&lt;/li&gt;&lt;li&gt;Vendors have many sales&lt;/li&gt;&lt;li&gt;Vendor has one owner&lt;/li&gt;&lt;/ul&gt;" style="text;strokeColor=none;fillColor=none;html=1;whiteSpace=wrap;verticalAlign=middle;overflow=hidden;" parent="1" vertex="1">
                    <mxGeometry x="125" y="190" width="220" height="90" as="geometry"/>
                </mxCell>
                <mxCell id="111" value="&lt;h1&gt;checkout placeholder&amp;nbsp;&lt;/h1&gt;" style="text;html=1;strokeColor=none;fillColor=none;spacing=5;spacingTop=-20;whiteSpace=wrap;overflow=hidden;rounded=0;fontSize=12;" parent="1" vertex="1">
                    <mxGeometry x="1720" y="410" width="190" height="120" as="geometry"/>
                </mxCell>
                <mxCell id="112" value="&lt;h1&gt;product list&lt;/h1&gt;&lt;div&gt;A&lt;/div&gt;&lt;div&gt;&lt;span style=&quot;white-space: pre;&quot;&gt;&#9;&lt;/span&gt;price, quant&lt;br&gt;&lt;/div&gt;&lt;div&gt;&lt;span style=&quot;white-space: pre;&quot;&gt;&#9;&lt;/span&gt;UPDATE&lt;br&gt;&lt;/div&gt;&lt;div&gt;&lt;span style=&quot;white-space: pre;&quot;&gt;&#9;&lt;/span&gt;DELETE&lt;br&gt;&lt;/div&gt;&lt;div&gt;b&lt;/div&gt;&lt;div&gt;&lt;span style=&quot;white-space: pre;&quot;&gt;&#9;&lt;/span&gt;price, quant&lt;br&gt;&lt;/div&gt;&lt;div&gt;&lt;span style=&quot;white-space: pre;&quot;&gt;&#9;&lt;/span&gt;UPDATE&lt;br&gt;&lt;/div&gt;&lt;div&gt;&lt;span style=&quot;white-space: pre;&quot;&gt;&#9;&lt;/span&gt;DELETE&lt;br&gt;&lt;/div&gt;&lt;div&gt;c&lt;/div&gt;&lt;div&gt;&lt;span style=&quot;white-space: pre;&quot;&gt;&#9;&lt;/span&gt;price, quant&lt;br&gt;&lt;/div&gt;&lt;div&gt;&lt;span style=&quot;white-space: pre;&quot;&gt;&#9;&lt;/span&gt;UPDATE&lt;br&gt;&lt;/div&gt;&lt;div&gt;&lt;span style=&quot;white-space: pre;&quot;&gt;&#9;&lt;/span&gt;DELETE&lt;br&gt;&lt;/div&gt;" style="text;html=1;strokeColor=none;fillColor=none;spacing=5;spacingTop=-20;whiteSpace=wrap;overflow=hidden;rounded=0;fontSize=12;" parent="1" vertex="1">
                    <mxGeometry x="1990" y="120" width="190" height="250" as="geometry"/>
                </mxCell>
                <mxCell id="113" value="&lt;span style=&quot;white-space: pre;&quot;&gt;&#9;&lt;/span&gt;&lt;ul&gt;&lt;li&gt;user has one cart&lt;/li&gt;&lt;/ul&gt;" style="text;strokeColor=none;fillColor=none;html=1;whiteSpace=wrap;verticalAlign=middle;overflow=hidden;" parent="1" vertex="1">
                    <mxGeometry x="440" y="100" width="220" height="90" as="geometry"/>
                </mxCell>
                <mxCell id="114" value="&lt;h1&gt;revenue&lt;/h1&gt;&lt;div&gt;total????&lt;/div&gt;&lt;div&gt;&lt;br&gt;&lt;/div&gt;&lt;div&gt;maybe per item??&lt;/div&gt;" style="text;html=1;strokeColor=none;fillColor=none;spacing=5;spacingTop=-20;whiteSpace=wrap;overflow=hidden;rounded=0;fontSize=12;" parent="1" vertex="1">
                    <mxGeometry x="2180" y="120" width="190" height="210" as="geometry"/>
                </mxCell>
                <mxCell id="115" value="&lt;h1&gt;add new&lt;/h1&gt;&lt;div&gt;name&lt;/div&gt;&lt;div&gt;price&lt;/div&gt;&lt;div&gt;description&lt;/div&gt;&lt;div&gt;quant&lt;/div&gt;" style="text;html=1;strokeColor=none;fillColor=none;spacing=5;spacingTop=-20;whiteSpace=wrap;overflow=hidden;rounded=0;fontSize=12;" parent="1" vertex="1">
                    <mxGeometry x="2160" y="240" width="190" height="120" as="geometry"/>
                </mxCell>
                <mxCell id="129" value="&lt;h1&gt;product list&lt;/h1&gt;&lt;div&gt;A&lt;/div&gt;&lt;div&gt;&lt;span style=&quot;white-space: pre;&quot;&gt;&#9;&lt;/span&gt;,,,&lt;br&gt;&lt;/div&gt;&lt;div&gt;&lt;span style=&quot;white-space: pre;&quot;&gt;&#9;&lt;/span&gt;.,..&lt;br&gt;&lt;/div&gt;&lt;div&gt;&lt;span style=&quot;white-space: pre;&quot;&gt;&#9;&lt;/span&gt;...&lt;br&gt;&lt;/div&gt;&lt;div&gt;B&lt;/div&gt;&lt;div&gt;&lt;span style=&quot;white-space: pre;&quot;&gt;&#9;&lt;/span&gt;...&lt;br&gt;&lt;/div&gt;&lt;div&gt;&lt;span style=&quot;white-space: pre;&quot;&gt;&#9;&lt;/span&gt;...&lt;br&gt;&lt;/div&gt;&lt;div&gt;ETC,&lt;/div&gt;&lt;div&gt;&lt;br&gt;&lt;/div&gt;&lt;div&gt;ADD NEW&lt;/div&gt;&lt;div&gt;&lt;span style=&quot;white-space: pre;&quot;&gt;&#9;&lt;/span&gt;...&lt;br&gt;&lt;/div&gt;&lt;div&gt;&lt;span style=&quot;white-space: pre;&quot;&gt;&#9;&lt;/span&gt;...&lt;br&gt;&lt;/div&gt;&lt;div&gt;&lt;span style=&quot;white-space: pre;&quot;&gt;&#9;&lt;/span&gt;...&lt;br&gt;&lt;/div&gt;" style="text;html=1;strokeColor=none;fillColor=none;spacing=5;spacingTop=-20;whiteSpace=wrap;overflow=hidden;rounded=0;fontSize=12;" parent="1" vertex="1">
                    <mxGeometry x="1990" y="370" width="190" height="250" as="geometry"/>
                </mxCell>
                <mxCell id="130" value="&lt;h1&gt;revenue&lt;/h1&gt;&lt;div&gt;total??????&lt;/div&gt;&lt;div&gt;maybe per item??&lt;/div&gt;" style="text;html=1;strokeColor=none;fillColor=none;spacing=5;spacingTop=-20;whiteSpace=wrap;overflow=hidden;rounded=0;fontSize=12;" parent="1" vertex="1">
                    <mxGeometry x="2160" y="370" width="190" height="120" as="geometry"/>
                </mxCell>
                <mxCell id="131" value="&lt;h1&gt;add new&lt;/h1&gt;&lt;div&gt;name&lt;/div&gt;&lt;div&gt;price&lt;/div&gt;&lt;div&gt;description&lt;/div&gt;&lt;div&gt;quantity&lt;/div&gt;" style="text;html=1;strokeColor=none;fillColor=none;spacing=5;spacingTop=-20;whiteSpace=wrap;overflow=hidden;rounded=0;fontSize=12;" parent="1" vertex="1">
                    <mxGeometry x="2160" y="470" width="190" height="120" as="geometry"/>
                </mxCell>
                <mxCell id="132" value="&lt;ul&gt;&lt;li&gt;Cart has many products&lt;/li&gt;&lt;li&gt;cart belongs user&lt;/li&gt;&lt;/ul&gt;" style="text;strokeColor=none;fillColor=none;html=1;whiteSpace=wrap;verticalAlign=middle;overflow=hidden;" parent="1" vertex="1">
                    <mxGeometry x="700" y="200" width="220" height="90" as="geometry"/>
                </mxCell>
                <mxCell id="135" value="&lt;ul&gt;&lt;li&gt;sales belongs to vendor&lt;/li&gt;&lt;/ul&gt;" style="text;strokeColor=none;fillColor=none;html=1;whiteSpace=wrap;verticalAlign=middle;overflow=hidden;" parent="1" vertex="1">
                    <mxGeometry x="425" y="400" width="220" height="90" as="geometry"/>
                </mxCell>
                <mxCell id="136" value="&lt;ul&gt;&lt;li&gt;product belongs to vendor&lt;/li&gt;&lt;/ul&gt;" style="text;strokeColor=none;fillColor=none;html=1;whiteSpace=wrap;verticalAlign=middle;overflow=hidden;" parent="1" vertex="1">
                    <mxGeometry x="435" y="630" width="220" height="90" as="geometry"/>
                </mxCell>
                <mxCell id="137" value="" style="strokeWidth=1;shadow=0;dashed=0;align=center;html=1;shape=mxgraph.mockup.containers.browserWindow;rSize=0;strokeColor=#666666;strokeColor2=#008cff;strokeColor3=#c4c4c4;mainText=,;recursiveResize=0;" parent="1" vertex="1">
                    <mxGeometry x="3.75" y="4210" width="660" height="630" as="geometry"/>
                </mxCell>
                <mxCell id="138" value="Page 1" style="strokeWidth=1;shadow=0;dashed=0;align=center;html=1;shape=mxgraph.mockup.containers.anchor;fontSize=17;fontColor=#666666;align=left;" parent="137" vertex="1">
                    <mxGeometry x="60" y="12" width="110" height="26" as="geometry"/>
                </mxCell>
                <mxCell id="139" value="https://www.draw.io" style="strokeWidth=1;shadow=0;dashed=0;align=center;html=1;shape=mxgraph.mockup.containers.anchor;rSize=0;fontSize=17;fontColor=#666666;align=left;" parent="137" vertex="1">
                    <mxGeometry x="130" y="60" width="250" height="26" as="geometry"/>
                </mxCell>
                <mxCell id="140" value="&lt;h1&gt;Login&lt;/h1&gt;&lt;div&gt;&lt;br&gt;&lt;/div&gt;&lt;div&gt;User Name:&amp;nbsp;&lt;/div&gt;&lt;div&gt;&lt;br&gt;&lt;/div&gt;&lt;div&gt;Password:&lt;/div&gt;" style="text;html=1;strokeColor=none;fillColor=none;spacing=5;spacingTop=-20;whiteSpace=wrap;overflow=hidden;rounded=0;" parent="137" vertex="1">
                    <mxGeometry x="130" y="220" width="85" height="200" as="geometry"/>
                </mxCell>
                <mxCell id="141" value="********" style="strokeWidth=1;shadow=0;dashed=0;align=center;html=1;shape=mxgraph.mockup.forms.pwField;strokeColor=#999999;mainText=;align=left;fontColor=#666666;fontSize=17;spacingLeft=3;" parent="137" vertex="1">
                    <mxGeometry x="205" y="310" width="80" height="20" as="geometry"/>
                </mxCell>
                <mxCell id="154" value="" style="rounded=0;whiteSpace=wrap;html=1;" parent="137" vertex="1">
                    <mxGeometry x="205" y="280" width="80" height="20" as="geometry"/>
                </mxCell>
                <mxCell id="155" value="&lt;h1&gt;Sign Up&lt;/h1&gt;&lt;div&gt;&lt;br&gt;&lt;/div&gt;&lt;div&gt;User Name:&lt;/div&gt;&lt;div&gt;&lt;br&gt;&lt;/div&gt;&lt;div&gt;Password:&lt;/div&gt;&lt;div&gt;&lt;br&gt;&lt;/div&gt;&lt;div&gt;Confirm Password:&lt;/div&gt;&lt;div&gt;&lt;br&gt;&lt;/div&gt;&lt;div&gt;email:&lt;/div&gt;" style="text;html=1;strokeColor=none;fillColor=none;spacing=5;spacingTop=-20;whiteSpace=wrap;overflow=hidden;rounded=0;align=right;" parent="137" vertex="1">
                    <mxGeometry x="380" y="220" width="125" height="230" as="geometry"/>
                </mxCell>
                <mxCell id="156" value="" style="rounded=0;whiteSpace=wrap;html=1;" parent="137" vertex="1">
                    <mxGeometry x="505" y="340" width="80" height="20" as="geometry"/>
                </mxCell>
                <mxCell id="157" value="" style="rounded=0;whiteSpace=wrap;html=1;" parent="137" vertex="1">
                    <mxGeometry x="505" y="310" width="80" height="20" as="geometry"/>
                </mxCell>
                <mxCell id="158" value="" style="rounded=0;whiteSpace=wrap;html=1;" parent="137" vertex="1">
                    <mxGeometry x="505" y="280" width="80" height="20" as="geometry"/>
                </mxCell>
                <mxCell id="159" value="" style="rounded=0;whiteSpace=wrap;html=1;" parent="137" vertex="1">
                    <mxGeometry x="505" y="370" width="80" height="20" as="geometry"/>
                </mxCell>
                <mxCell id="264" value="&lt;font style=&quot;font-size: 16px;&quot;&gt;Become a vendor.&lt;/font&gt;" style="rounded=1;html=1;shadow=0;dashed=0;whiteSpace=wrap;fontSize=10;fillColor=#666666;align=center;strokeColor=#4D4D4D;fontColor=#ffffff;movable=1;resizable=1;rotatable=1;deletable=1;editable=1;connectable=1;" vertex="1" parent="137">
                    <mxGeometry x="245" y="460" width="170" height="50" as="geometry"/>
                </mxCell>
                <mxCell id="160" value="" style="strokeWidth=1;shadow=0;dashed=0;align=center;html=1;shape=mxgraph.mockup.containers.browserWindow;rSize=0;strokeColor=#666666;strokeColor2=#008cff;strokeColor3=#c4c4c4;mainText=,;recursiveResize=0;container=0;movable=1;resizable=1;rotatable=1;deletable=1;editable=1;connectable=1;" parent="1" vertex="1">
                    <mxGeometry x="692.5" y="4210" width="610" height="630" as="geometry"/>
                </mxCell>
                <mxCell id="161" value="Page 1" style="strokeWidth=1;shadow=0;dashed=0;align=center;html=1;shape=mxgraph.mockup.containers.anchor;fontSize=17;fontColor=#666666;align=left;movable=1;resizable=1;rotatable=1;deletable=1;editable=1;connectable=1;" parent="1" vertex="1">
                    <mxGeometry x="742.5" y="4220" width="110" height="26" as="geometry"/>
                </mxCell>
                <mxCell id="162" value="https://www.draw.io" style="strokeWidth=1;shadow=0;dashed=0;align=center;html=1;shape=mxgraph.mockup.containers.anchor;rSize=0;fontSize=17;fontColor=#666666;align=left;movable=1;resizable=1;rotatable=1;deletable=1;editable=1;connectable=1;" parent="1" vertex="1">
                    <mxGeometry x="812.5" y="4268" width="250" height="26" as="geometry"/>
                </mxCell>
                <mxCell id="178" value="" style="shape=table;startSize=0;container=1;collapsible=0;childLayout=tableLayout;strokeColor=default;swimlaneLine=0;rowLines=0;columnLines=0;movable=1;resizable=1;rotatable=1;deletable=1;editable=1;connectable=1;" vertex="1" parent="1">
                    <mxGeometry x="773.5" y="4338" width="458" height="428" as="geometry"/>
                </mxCell>
                <mxCell id="179" value="" style="shape=tableRow;horizontal=0;startSize=0;swimlaneHead=0;swimlaneBody=0;top=0;left=0;bottom=0;right=0;collapsible=0;dropTarget=0;fillColor=none;points=[[0,0.5],[1,0.5]];portConstraint=eastwest;movable=1;resizable=1;rotatable=1;deletable=1;editable=1;connectable=1;" vertex="1" parent="178">
                    <mxGeometry width="458" height="50" as="geometry"/>
                </mxCell>
                <mxCell id="180" value="" style="shape=partialRectangle;html=1;whiteSpace=wrap;connectable=1;overflow=hidden;fillColor=none;top=0;left=0;bottom=0;right=0;pointerEvents=1;movable=1;resizable=1;rotatable=1;deletable=1;editable=1;" vertex="1" parent="179">
                    <mxGeometry width="139" height="50" as="geometry">
                        <mxRectangle width="139" height="50" as="alternateBounds"/>
                    </mxGeometry>
                </mxCell>
                <mxCell id="181" value="" style="shape=partialRectangle;html=1;whiteSpace=wrap;connectable=1;overflow=hidden;fillColor=none;top=0;left=0;bottom=0;right=0;pointerEvents=1;movable=1;resizable=1;rotatable=1;deletable=1;editable=1;" vertex="1" parent="179">
                    <mxGeometry x="139" width="20" height="50" as="geometry">
                        <mxRectangle width="20" height="50" as="alternateBounds"/>
                    </mxGeometry>
                </mxCell>
                <mxCell id="191" value="&lt;u&gt;Cart&lt;/u&gt;" style="shape=partialRectangle;html=1;whiteSpace=wrap;connectable=1;overflow=hidden;fillColor=none;top=0;left=0;bottom=0;right=0;pointerEvents=1;movable=1;resizable=1;rotatable=1;deletable=1;editable=1;" vertex="1" parent="179">
                    <mxGeometry x="159" width="100" height="50" as="geometry">
                        <mxRectangle width="100" height="50" as="alternateBounds"/>
                    </mxGeometry>
                </mxCell>
                <mxCell id="182" value="" style="shape=partialRectangle;html=1;whiteSpace=wrap;connectable=1;overflow=hidden;fillColor=none;top=0;left=0;bottom=0;right=0;pointerEvents=1;movable=1;resizable=1;rotatable=1;deletable=1;editable=1;" vertex="1" parent="179">
                    <mxGeometry x="259" width="90" height="50" as="geometry">
                        <mxRectangle width="90" height="50" as="alternateBounds"/>
                    </mxGeometry>
                </mxCell>
                <mxCell id="194" style="shape=partialRectangle;html=1;whiteSpace=wrap;connectable=1;overflow=hidden;fillColor=none;top=0;left=0;bottom=0;right=0;pointerEvents=1;movable=1;resizable=1;rotatable=1;deletable=1;editable=1;" vertex="1" parent="179">
                    <mxGeometry x="349" width="109" height="50" as="geometry">
                        <mxRectangle width="109" height="50" as="alternateBounds"/>
                    </mxGeometry>
                </mxCell>
                <mxCell id="183" style="shape=tableRow;horizontal=0;startSize=0;swimlaneHead=0;swimlaneBody=0;top=0;left=0;bottom=0;right=0;collapsible=0;dropTarget=0;fillColor=none;points=[[0,0.5],[1,0.5]];portConstraint=eastwest;movable=1;resizable=1;rotatable=1;deletable=1;editable=1;connectable=1;" vertex="1" parent="178">
                    <mxGeometry y="50" width="458" height="54" as="geometry"/>
                </mxCell>
                <mxCell id="184" value="&lt;u&gt;Items&lt;/u&gt;" style="shape=partialRectangle;html=1;whiteSpace=wrap;connectable=1;overflow=hidden;fillColor=none;top=0;left=0;bottom=0;right=0;pointerEvents=1;movable=1;resizable=1;rotatable=1;deletable=1;editable=1;" vertex="1" parent="183">
                    <mxGeometry width="139" height="54" as="geometry">
                        <mxRectangle width="139" height="54" as="alternateBounds"/>
                    </mxGeometry>
                </mxCell>
                <mxCell id="185" value="" style="shape=partialRectangle;html=1;whiteSpace=wrap;connectable=1;overflow=hidden;fillColor=none;top=0;left=0;bottom=0;right=0;pointerEvents=1;movable=1;resizable=1;rotatable=1;deletable=1;editable=1;" vertex="1" parent="183">
                    <mxGeometry x="139" width="20" height="54" as="geometry">
                        <mxRectangle width="20" height="54" as="alternateBounds"/>
                    </mxGeometry>
                </mxCell>
                <mxCell id="192" style="shape=partialRectangle;html=1;whiteSpace=wrap;connectable=1;overflow=hidden;fillColor=none;top=0;left=0;bottom=0;right=0;pointerEvents=1;movable=1;resizable=1;rotatable=1;deletable=1;editable=1;" vertex="1" parent="183">
                    <mxGeometry x="159" width="100" height="54" as="geometry">
                        <mxRectangle width="100" height="54" as="alternateBounds"/>
                    </mxGeometry>
                </mxCell>
                <mxCell id="186" value="&lt;u&gt;Quantity&lt;/u&gt;" style="shape=partialRectangle;html=1;whiteSpace=wrap;connectable=1;overflow=hidden;fillColor=none;top=0;left=0;bottom=0;right=0;pointerEvents=1;movable=1;resizable=1;rotatable=1;deletable=1;editable=1;" vertex="1" parent="183">
                    <mxGeometry x="259" width="90" height="54" as="geometry">
                        <mxRectangle width="90" height="54" as="alternateBounds"/>
                    </mxGeometry>
                </mxCell>
                <mxCell id="195" value="&lt;u&gt;Price&lt;/u&gt;" style="shape=partialRectangle;html=1;whiteSpace=wrap;connectable=1;overflow=hidden;fillColor=none;top=0;left=0;bottom=0;right=0;pointerEvents=1;movable=1;resizable=1;rotatable=1;deletable=1;editable=1;" vertex="1" parent="183">
                    <mxGeometry x="349" width="109" height="54" as="geometry">
                        <mxRectangle width="109" height="54" as="alternateBounds"/>
                    </mxGeometry>
                </mxCell>
                <mxCell id="198" style="shape=tableRow;horizontal=0;startSize=0;swimlaneHead=0;swimlaneBody=0;top=0;left=0;bottom=0;right=0;collapsible=0;dropTarget=0;fillColor=none;points=[[0,0.5],[1,0.5]];portConstraint=eastwest;movable=1;resizable=1;rotatable=1;deletable=1;editable=1;connectable=1;" vertex="1" parent="178">
                    <mxGeometry y="104" width="458" height="54" as="geometry"/>
                </mxCell>
                <mxCell id="199" value="Item 1" style="shape=partialRectangle;html=1;whiteSpace=wrap;connectable=1;overflow=hidden;fillColor=none;top=0;left=0;bottom=0;right=0;pointerEvents=1;movable=1;resizable=1;rotatable=1;deletable=1;editable=1;" vertex="1" parent="198">
                    <mxGeometry width="139" height="54" as="geometry">
                        <mxRectangle width="139" height="54" as="alternateBounds"/>
                    </mxGeometry>
                </mxCell>
                <mxCell id="200" style="shape=partialRectangle;html=1;whiteSpace=wrap;connectable=1;overflow=hidden;fillColor=none;top=0;left=0;bottom=0;right=0;pointerEvents=1;movable=1;resizable=1;rotatable=1;deletable=1;editable=1;" vertex="1" parent="198">
                    <mxGeometry x="139" width="20" height="54" as="geometry">
                        <mxRectangle width="20" height="54" as="alternateBounds"/>
                    </mxGeometry>
                </mxCell>
                <mxCell id="201" style="shape=partialRectangle;html=1;whiteSpace=wrap;connectable=1;overflow=hidden;fillColor=none;top=0;left=0;bottom=0;right=0;pointerEvents=1;movable=1;resizable=1;rotatable=1;deletable=1;editable=1;" vertex="1" parent="198">
                    <mxGeometry x="159" width="100" height="54" as="geometry">
                        <mxRectangle width="100" height="54" as="alternateBounds"/>
                    </mxGeometry>
                </mxCell>
                <mxCell id="202" value="(Quantity)" style="shape=partialRectangle;html=1;whiteSpace=wrap;connectable=1;overflow=hidden;fillColor=none;top=0;left=0;bottom=0;right=0;pointerEvents=1;movable=1;resizable=1;rotatable=1;deletable=1;editable=1;" vertex="1" parent="198">
                    <mxGeometry x="259" width="90" height="54" as="geometry">
                        <mxRectangle width="90" height="54" as="alternateBounds"/>
                    </mxGeometry>
                </mxCell>
                <mxCell id="203" value="(Total price of all items in row)" style="shape=partialRectangle;html=1;whiteSpace=wrap;connectable=1;overflow=hidden;fillColor=none;top=0;left=0;bottom=0;right=0;pointerEvents=1;movable=1;resizable=1;rotatable=1;deletable=1;editable=1;" vertex="1" parent="198">
                    <mxGeometry x="349" width="109" height="54" as="geometry">
                        <mxRectangle width="109" height="54" as="alternateBounds"/>
                    </mxGeometry>
                </mxCell>
                <mxCell id="204" style="shape=tableRow;horizontal=0;startSize=0;swimlaneHead=0;swimlaneBody=0;top=0;left=0;bottom=0;right=0;collapsible=0;dropTarget=0;fillColor=none;points=[[0,0.5],[1,0.5]];portConstraint=eastwest;movable=1;resizable=1;rotatable=1;deletable=1;editable=1;connectable=1;" vertex="1" parent="178">
                    <mxGeometry y="158" width="458" height="54" as="geometry"/>
                </mxCell>
                <mxCell id="205" value="Item 2" style="shape=partialRectangle;html=1;whiteSpace=wrap;connectable=1;overflow=hidden;fillColor=none;top=0;left=0;bottom=0;right=0;pointerEvents=1;movable=1;resizable=1;rotatable=1;deletable=1;editable=1;" vertex="1" parent="204">
                    <mxGeometry width="139" height="54" as="geometry">
                        <mxRectangle width="139" height="54" as="alternateBounds"/>
                    </mxGeometry>
                </mxCell>
                <mxCell id="206" style="shape=partialRectangle;html=1;whiteSpace=wrap;connectable=1;overflow=hidden;fillColor=none;top=0;left=0;bottom=0;right=0;pointerEvents=1;movable=1;resizable=1;rotatable=1;deletable=1;editable=1;" vertex="1" parent="204">
                    <mxGeometry x="139" width="20" height="54" as="geometry">
                        <mxRectangle width="20" height="54" as="alternateBounds"/>
                    </mxGeometry>
                </mxCell>
                <mxCell id="207" style="shape=partialRectangle;html=1;whiteSpace=wrap;connectable=1;overflow=hidden;fillColor=none;top=0;left=0;bottom=0;right=0;pointerEvents=1;movable=1;resizable=1;rotatable=1;deletable=1;editable=1;" vertex="1" parent="204">
                    <mxGeometry x="159" width="100" height="54" as="geometry">
                        <mxRectangle width="100" height="54" as="alternateBounds"/>
                    </mxGeometry>
                </mxCell>
                <mxCell id="208" value="(Quantity)" style="shape=partialRectangle;html=1;whiteSpace=wrap;connectable=1;overflow=hidden;fillColor=none;top=0;left=0;bottom=0;right=0;pointerEvents=1;movable=1;resizable=1;rotatable=1;deletable=1;editable=1;" vertex="1" parent="204">
                    <mxGeometry x="259" width="90" height="54" as="geometry">
                        <mxRectangle width="90" height="54" as="alternateBounds"/>
                    </mxGeometry>
                </mxCell>
                <mxCell id="209" value="(Total price of all items in row)" style="shape=partialRectangle;html=1;whiteSpace=wrap;connectable=1;overflow=hidden;fillColor=none;top=0;left=0;bottom=0;right=0;pointerEvents=1;movable=1;resizable=1;rotatable=1;deletable=1;editable=1;" vertex="1" parent="204">
                    <mxGeometry x="349" width="109" height="54" as="geometry">
                        <mxRectangle width="109" height="54" as="alternateBounds"/>
                    </mxGeometry>
                </mxCell>
                <mxCell id="211" style="shape=tableRow;horizontal=0;startSize=0;swimlaneHead=0;swimlaneBody=0;top=0;left=0;bottom=0;right=0;collapsible=0;dropTarget=0;fillColor=none;points=[[0,0.5],[1,0.5]];portConstraint=eastwest;movable=1;resizable=1;rotatable=1;deletable=1;editable=1;connectable=1;" vertex="1" parent="178">
                    <mxGeometry y="212" width="458" height="54" as="geometry"/>
                </mxCell>
                <mxCell id="212" value="Item 3" style="shape=partialRectangle;html=1;whiteSpace=wrap;connectable=1;overflow=hidden;fillColor=none;top=0;left=0;bottom=0;right=0;pointerEvents=1;movable=1;resizable=1;rotatable=1;deletable=1;editable=1;" vertex="1" parent="211">
                    <mxGeometry width="139" height="54" as="geometry">
                        <mxRectangle width="139" height="54" as="alternateBounds"/>
                    </mxGeometry>
                </mxCell>
                <mxCell id="213" style="shape=partialRectangle;html=1;whiteSpace=wrap;connectable=1;overflow=hidden;fillColor=none;top=0;left=0;bottom=0;right=0;pointerEvents=1;movable=1;resizable=1;rotatable=1;deletable=1;editable=1;" vertex="1" parent="211">
                    <mxGeometry x="139" width="20" height="54" as="geometry">
                        <mxRectangle width="20" height="54" as="alternateBounds"/>
                    </mxGeometry>
                </mxCell>
                <mxCell id="214" style="shape=partialRectangle;html=1;whiteSpace=wrap;connectable=1;overflow=hidden;fillColor=none;top=0;left=0;bottom=0;right=0;pointerEvents=1;movable=1;resizable=1;rotatable=1;deletable=1;editable=1;" vertex="1" parent="211">
                    <mxGeometry x="159" width="100" height="54" as="geometry">
                        <mxRectangle width="100" height="54" as="alternateBounds"/>
                    </mxGeometry>
                </mxCell>
                <mxCell id="215" value="(Quantity)" style="shape=partialRectangle;html=1;whiteSpace=wrap;connectable=1;overflow=hidden;fillColor=none;top=0;left=0;bottom=0;right=0;pointerEvents=1;movable=1;resizable=1;rotatable=1;deletable=1;editable=1;" vertex="1" parent="211">
                    <mxGeometry x="259" width="90" height="54" as="geometry">
                        <mxRectangle width="90" height="54" as="alternateBounds"/>
                    </mxGeometry>
                </mxCell>
                <mxCell id="216" value="(Total price of all items in row)" style="shape=partialRectangle;html=1;whiteSpace=wrap;connectable=1;overflow=hidden;fillColor=none;top=0;left=0;bottom=0;right=0;pointerEvents=1;movable=1;resizable=1;rotatable=1;deletable=1;editable=1;" vertex="1" parent="211">
                    <mxGeometry x="349" width="109" height="54" as="geometry">
                        <mxRectangle width="109" height="54" as="alternateBounds"/>
                    </mxGeometry>
                </mxCell>
                <mxCell id="223" style="shape=tableRow;horizontal=0;startSize=0;swimlaneHead=0;swimlaneBody=0;top=0;left=0;bottom=0;right=0;collapsible=0;dropTarget=0;fillColor=none;points=[[0,0.5],[1,0.5]];portConstraint=eastwest;movable=1;resizable=1;rotatable=1;deletable=1;editable=1;connectable=1;" vertex="1" parent="178">
                    <mxGeometry y="266" width="458" height="54" as="geometry"/>
                </mxCell>
                <mxCell id="224" style="shape=partialRectangle;html=1;whiteSpace=wrap;connectable=1;overflow=hidden;fillColor=none;top=0;left=0;bottom=0;right=0;pointerEvents=1;movable=1;resizable=1;rotatable=1;deletable=1;editable=1;" vertex="1" parent="223">
                    <mxGeometry width="139" height="54" as="geometry">
                        <mxRectangle width="139" height="54" as="alternateBounds"/>
                    </mxGeometry>
                </mxCell>
                <mxCell id="225" style="shape=partialRectangle;html=1;whiteSpace=wrap;connectable=1;overflow=hidden;fillColor=none;top=0;left=0;bottom=0;right=0;pointerEvents=1;movable=1;resizable=1;rotatable=1;deletable=1;editable=1;" vertex="1" parent="223">
                    <mxGeometry x="139" width="20" height="54" as="geometry">
                        <mxRectangle width="20" height="54" as="alternateBounds"/>
                    </mxGeometry>
                </mxCell>
                <mxCell id="226" style="shape=partialRectangle;html=1;whiteSpace=wrap;connectable=1;overflow=hidden;fillColor=none;top=0;left=0;bottom=0;right=0;pointerEvents=1;movable=1;resizable=1;rotatable=1;deletable=1;editable=1;" vertex="1" parent="223">
                    <mxGeometry x="159" width="100" height="54" as="geometry">
                        <mxRectangle width="100" height="54" as="alternateBounds"/>
                    </mxGeometry>
                </mxCell>
                <mxCell id="227" value="&lt;u&gt;Items in Cart&lt;/u&gt;" style="shape=partialRectangle;html=1;whiteSpace=wrap;connectable=1;overflow=hidden;fillColor=none;top=0;left=0;bottom=0;right=0;pointerEvents=1;movable=1;resizable=1;rotatable=1;deletable=1;editable=1;" vertex="1" parent="223">
                    <mxGeometry x="259" width="90" height="54" as="geometry">
                        <mxRectangle width="90" height="54" as="alternateBounds"/>
                    </mxGeometry>
                </mxCell>
                <mxCell id="228" value="&lt;u&gt;Total Price&lt;/u&gt;" style="shape=partialRectangle;html=1;whiteSpace=wrap;connectable=1;overflow=hidden;fillColor=none;top=0;left=0;bottom=0;right=0;pointerEvents=1;movable=1;resizable=1;rotatable=1;deletable=1;editable=1;" vertex="1" parent="223">
                    <mxGeometry x="349" width="109" height="54" as="geometry">
                        <mxRectangle width="109" height="54" as="alternateBounds"/>
                    </mxGeometry>
                </mxCell>
                <mxCell id="229" style="shape=tableRow;horizontal=0;startSize=0;swimlaneHead=0;swimlaneBody=0;top=0;left=0;bottom=0;right=0;collapsible=0;dropTarget=0;fillColor=none;points=[[0,0.5],[1,0.5]];portConstraint=eastwest;movable=1;resizable=1;rotatable=1;deletable=1;editable=1;connectable=1;" vertex="1" parent="178">
                    <mxGeometry y="320" width="458" height="54" as="geometry"/>
                </mxCell>
                <mxCell id="230" style="shape=partialRectangle;html=1;whiteSpace=wrap;connectable=1;overflow=hidden;fillColor=none;top=0;left=0;bottom=0;right=0;pointerEvents=1;movable=1;resizable=1;rotatable=1;deletable=1;editable=1;" vertex="1" parent="229">
                    <mxGeometry width="139" height="54" as="geometry">
                        <mxRectangle width="139" height="54" as="alternateBounds"/>
                    </mxGeometry>
                </mxCell>
                <mxCell id="231" style="shape=partialRectangle;html=1;whiteSpace=wrap;connectable=1;overflow=hidden;fillColor=none;top=0;left=0;bottom=0;right=0;pointerEvents=1;movable=1;resizable=1;rotatable=1;deletable=1;editable=1;" vertex="1" parent="229">
                    <mxGeometry x="139" width="20" height="54" as="geometry">
                        <mxRectangle width="20" height="54" as="alternateBounds"/>
                    </mxGeometry>
                </mxCell>
                <mxCell id="232" style="shape=partialRectangle;html=1;whiteSpace=wrap;connectable=1;overflow=hidden;fillColor=none;top=0;left=0;bottom=0;right=0;pointerEvents=1;movable=1;resizable=1;rotatable=1;deletable=1;editable=1;" vertex="1" parent="229">
                    <mxGeometry x="159" width="100" height="54" as="geometry">
                        <mxRectangle width="100" height="54" as="alternateBounds"/>
                    </mxGeometry>
                </mxCell>
                <mxCell id="233" value="(Total number of items in cart)" style="shape=partialRectangle;html=1;whiteSpace=wrap;connectable=1;overflow=hidden;fillColor=none;top=0;left=0;bottom=0;right=0;pointerEvents=1;movable=1;resizable=1;rotatable=1;deletable=1;editable=1;" vertex="1" parent="229">
                    <mxGeometry x="259" width="90" height="54" as="geometry">
                        <mxRectangle width="90" height="54" as="alternateBounds"/>
                    </mxGeometry>
                </mxCell>
                <mxCell id="234" value="(Total price of all items)" style="shape=partialRectangle;html=1;whiteSpace=wrap;connectable=1;overflow=hidden;fillColor=none;top=0;left=0;bottom=0;right=0;pointerEvents=1;movable=1;resizable=1;rotatable=1;deletable=1;editable=1;" vertex="1" parent="229">
                    <mxGeometry x="349" width="109" height="54" as="geometry">
                        <mxRectangle width="109" height="54" as="alternateBounds"/>
                    </mxGeometry>
                </mxCell>
                <mxCell id="241" style="shape=tableRow;horizontal=0;startSize=0;swimlaneHead=0;swimlaneBody=0;top=0;left=0;bottom=0;right=0;collapsible=0;dropTarget=0;fillColor=none;points=[[0,0.5],[1,0.5]];portConstraint=eastwest;movable=1;resizable=1;rotatable=1;deletable=1;editable=1;connectable=1;" vertex="1" parent="178">
                    <mxGeometry y="374" width="458" height="54" as="geometry"/>
                </mxCell>
                <mxCell id="242" style="shape=partialRectangle;html=1;whiteSpace=wrap;connectable=1;overflow=hidden;fillColor=none;top=0;left=0;bottom=0;right=0;pointerEvents=1;movable=1;resizable=1;rotatable=1;deletable=1;editable=1;" vertex="1" parent="241">
                    <mxGeometry width="139" height="54" as="geometry">
                        <mxRectangle width="139" height="54" as="alternateBounds"/>
                    </mxGeometry>
                </mxCell>
                <mxCell id="243" style="shape=partialRectangle;html=1;whiteSpace=wrap;connectable=1;overflow=hidden;fillColor=none;top=0;left=0;bottom=0;right=0;pointerEvents=1;movable=1;resizable=1;rotatable=1;deletable=1;editable=1;" vertex="1" parent="241">
                    <mxGeometry x="139" width="20" height="54" as="geometry">
                        <mxRectangle width="20" height="54" as="alternateBounds"/>
                    </mxGeometry>
                </mxCell>
                <mxCell id="244" style="shape=partialRectangle;html=1;whiteSpace=wrap;connectable=1;overflow=hidden;fillColor=none;top=0;left=0;bottom=0;right=0;pointerEvents=1;movable=1;resizable=1;rotatable=1;deletable=1;editable=1;" vertex="1" parent="241">
                    <mxGeometry x="159" width="100" height="54" as="geometry">
                        <mxRectangle width="100" height="54" as="alternateBounds"/>
                    </mxGeometry>
                </mxCell>
                <mxCell id="245" style="shape=partialRectangle;html=1;whiteSpace=wrap;connectable=1;overflow=hidden;fillColor=none;top=0;left=0;bottom=0;right=0;pointerEvents=1;movable=1;resizable=1;rotatable=1;deletable=1;editable=1;" vertex="1" parent="241">
                    <mxGeometry x="259" width="90" height="54" as="geometry">
                        <mxRectangle width="90" height="54" as="alternateBounds"/>
                    </mxGeometry>
                </mxCell>
                <mxCell id="246" style="shape=partialRectangle;html=1;whiteSpace=wrap;connectable=1;overflow=hidden;fillColor=none;top=0;left=0;bottom=0;right=0;pointerEvents=1;movable=1;resizable=1;rotatable=1;deletable=1;editable=1;" vertex="1" parent="241">
                    <mxGeometry x="349" width="109" height="54" as="geometry">
                        <mxRectangle width="109" height="54" as="alternateBounds"/>
                    </mxGeometry>
                </mxCell>
                <mxCell id="247" value="Proceed to Checkout" style="rounded=1;html=1;shadow=0;dashed=0;whiteSpace=wrap;fontSize=10;fillColor=#666666;align=center;strokeColor=#4D4D4D;fontColor=#ffffff;movable=1;resizable=1;rotatable=1;deletable=1;editable=1;connectable=1;" vertex="1" parent="1">
                    <mxGeometry x="950.5" y="4731" width="105.5" height="16.88" as="geometry"/>
                </mxCell>
                <mxCell id="249" value="" style="strokeWidth=1;shadow=0;dashed=0;align=center;html=1;shape=mxgraph.mockup.containers.browserWindow;rSize=0;strokeColor=#666666;strokeColor2=#008cff;strokeColor3=#c4c4c4;mainText=,;recursiveResize=0;" vertex="1" parent="1">
                    <mxGeometry x="13.75" y="1930" width="650" height="800" as="geometry"/>
                </mxCell>
                <mxCell id="250" value="Page 1" style="strokeWidth=1;shadow=0;dashed=0;align=center;html=1;shape=mxgraph.mockup.containers.anchor;fontSize=17;fontColor=#666666;align=left;strokeColor=default;" vertex="1" parent="249">
                    <mxGeometry x="60" y="12" width="110" height="26" as="geometry"/>
                </mxCell>
                <mxCell id="251" value="https://www.draw.io" style="strokeWidth=1;shadow=0;dashed=0;align=center;html=1;shape=mxgraph.mockup.containers.anchor;rSize=0;fontSize=17;fontColor=#666666;align=left;strokeColor=default;" vertex="1" parent="249">
                    <mxGeometry x="130" y="60" width="250" height="26" as="geometry"/>
                </mxCell>
                <mxCell id="253" value="&lt;span style=&quot;font-size: 31px;&quot;&gt;The Farmer's E-Market&lt;/span&gt;" style="rounded=1;whiteSpace=wrap;html=1;strokeColor=default;" vertex="1" parent="249">
                    <mxGeometry x="55" y="130" width="565" height="110" as="geometry"/>
                </mxCell>
                <mxCell id="255" value="Cart" style="html=1;shadow=0;dashed=0;shape=mxgraph.bootstrap.rrect;rSize=5;strokeColor=none;strokeWidth=1;fillColor=none;fontColor=#0085FC;whiteSpace=wrap;align=center;verticalAlign=middle;spacingLeft=0;fontStyle=0;fontSize=16;spacing=5;" vertex="1" parent="249">
                    <mxGeometry x="400" y="210" width="50" height="30" as="geometry"/>
                </mxCell>
                <mxCell id="256" value="Account (or signup)&amp;nbsp;" style="html=1;shadow=0;dashed=0;shape=mxgraph.bootstrap.rrect;rSize=5;strokeColor=none;strokeWidth=1;fillColor=none;fontColor=#0085FC;whiteSpace=wrap;align=center;verticalAlign=middle;spacingLeft=0;fontStyle=0;fontSize=16;spacing=5;" vertex="1" parent="249">
                    <mxGeometry x="460" y="205" width="160" height="40" as="geometry"/>
                </mxCell>
                <mxCell id="257" value="Vendors" style="html=1;shadow=0;dashed=0;shape=mxgraph.bootstrap.rrect;rSize=5;strokeColor=none;strokeWidth=1;fillColor=none;fontColor=#0085FC;whiteSpace=wrap;align=center;verticalAlign=middle;spacingLeft=0;fontStyle=0;fontSize=16;spacing=5;" vertex="1" parent="249">
                    <mxGeometry x="90" y="210" width="50" height="30" as="geometry"/>
                </mxCell>
                <mxCell id="268" value="Search available inventories." style="strokeWidth=1;shadow=0;dashed=0;align=center;html=1;shape=mxgraph.mockup.forms.searchBox;strokeColor=#999999;mainText=;strokeColor2=#008cff;fontColor=#666666;fontSize=17;align=left;spacingLeft=3;" vertex="1" parent="249">
                    <mxGeometry x="50" y="290" width="562.5" height="30" as="geometry"/>
                </mxCell>
                <mxCell id="269" value="Categories" style="rounded=1;fillColor=#F1F2F4;strokeColor=none;html=1;fontColor=#596780;align=left;fontSize=12;spacingLeft=10;sketch=0;" vertex="1" parent="249">
                    <mxGeometry x="170" y="213.5" width="110" height="23" as="geometry"/>
                </mxCell>
                <mxCell id="270" value="" style="shape=triangle;direction=south;fillColor=#596780;strokeColor=none;html=1;sketch=0;fontSize=16;" vertex="1" parent="269">
                    <mxGeometry x="1" y="0.5" width="12" height="6" relative="1" as="geometry">
                        <mxPoint x="-20" y="-3" as="offset"/>
                    </mxGeometry>
                </mxCell>
                <mxCell id="305" value="(Product name)" style="text;html=1;strokeColor=none;fillColor=none;align=center;verticalAlign=middle;whiteSpace=wrap;rounded=0;fontSize=16;" vertex="1" parent="249">
                    <mxGeometry x="26.25" y="370" width="139.75" height="30" as="geometry"/>
                </mxCell>
                <mxCell id="306" value="(category type)" style="text;html=1;strokeColor=none;fillColor=none;align=center;verticalAlign=middle;whiteSpace=wrap;rounded=0;fontSize=16;" vertex="1" parent="249">
                    <mxGeometry x="166" y="370" width="139.75" height="30" as="geometry"/>
                </mxCell>
                <mxCell id="307" value="(price)" style="text;html=1;strokeColor=none;fillColor=none;align=center;verticalAlign=middle;whiteSpace=wrap;rounded=0;fontSize=16;" vertex="1" parent="249">
                    <mxGeometry x="354.5" y="370" width="77.75" height="30" as="geometry"/>
                </mxCell>
                <mxCell id="312" value="" style="rounded=1;whiteSpace=wrap;html=1;strokeColor=default;fontSize=16;" vertex="1" parent="249">
                    <mxGeometry x="503.25" y="375" width="38.75" height="20" as="geometry"/>
                </mxCell>
                <mxCell id="314" value="Quantity:" style="text;html=1;strokeColor=none;fillColor=none;align=center;verticalAlign=middle;whiteSpace=wrap;rounded=0;fontSize=16;" vertex="1" parent="249">
                    <mxGeometry x="432.25" y="370" width="64.75" height="30" as="geometry"/>
                </mxCell>
                <mxCell id="328" value="&lt;font style=&quot;font-size: 16px;&quot;&gt;Add to Cart&lt;/font&gt;" style="rounded=1;html=1;shadow=0;dashed=0;whiteSpace=wrap;fontSize=10;fillColor=#666666;align=center;strokeColor=#4D4D4D;fontColor=#ffffff;movable=1;resizable=1;rotatable=1;deletable=1;editable=1;connectable=1;" vertex="1" parent="249">
                    <mxGeometry x="556" y="375" width="84" height="20" as="geometry"/>
                </mxCell>
                <mxCell id="329" value="(Product name)" style="text;html=1;strokeColor=none;fillColor=none;align=center;verticalAlign=middle;whiteSpace=wrap;rounded=0;fontSize=16;" vertex="1" parent="249">
                    <mxGeometry x="26.25" y="410" width="139.75" height="30" as="geometry"/>
                </mxCell>
                <mxCell id="330" value="(category type)" style="text;html=1;strokeColor=none;fillColor=none;align=center;verticalAlign=middle;whiteSpace=wrap;rounded=0;fontSize=16;" vertex="1" parent="249">
                    <mxGeometry x="166" y="410" width="139.75" height="30" as="geometry"/>
                </mxCell>
                <mxCell id="331" value="(price)" style="text;html=1;strokeColor=none;fillColor=none;align=center;verticalAlign=middle;whiteSpace=wrap;rounded=0;fontSize=16;" vertex="1" parent="249">
                    <mxGeometry x="354.5" y="410" width="77.75" height="30" as="geometry"/>
                </mxCell>
                <mxCell id="332" value="" style="rounded=1;whiteSpace=wrap;html=1;strokeColor=default;fontSize=16;" vertex="1" parent="249">
                    <mxGeometry x="503.25" y="415" width="38.75" height="20" as="geometry"/>
                </mxCell>
                <mxCell id="333" value="Quantity:" style="text;html=1;strokeColor=none;fillColor=none;align=center;verticalAlign=middle;whiteSpace=wrap;rounded=0;fontSize=16;" vertex="1" parent="249">
                    <mxGeometry x="432.25" y="410" width="64.75" height="30" as="geometry"/>
                </mxCell>
                <mxCell id="334" value="&lt;font style=&quot;font-size: 16px;&quot;&gt;Add to Cart&lt;/font&gt;" style="rounded=1;html=1;shadow=0;dashed=0;whiteSpace=wrap;fontSize=10;fillColor=#666666;align=center;strokeColor=#4D4D4D;fontColor=#ffffff;movable=1;resizable=1;rotatable=1;deletable=1;editable=1;connectable=1;" vertex="1" parent="249">
                    <mxGeometry x="556" y="415" width="84" height="20" as="geometry"/>
                </mxCell>
                <mxCell id="335" value="(Product name)" style="text;html=1;strokeColor=none;fillColor=none;align=center;verticalAlign=middle;whiteSpace=wrap;rounded=0;fontSize=16;" vertex="1" parent="249">
                    <mxGeometry x="26.25" y="450" width="139.75" height="30" as="geometry"/>
                </mxCell>
                <mxCell id="336" value="(category type)" style="text;html=1;strokeColor=none;fillColor=none;align=center;verticalAlign=middle;whiteSpace=wrap;rounded=0;fontSize=16;" vertex="1" parent="249">
                    <mxGeometry x="166" y="450" width="139.75" height="30" as="geometry"/>
                </mxCell>
                <mxCell id="337" value="(price)" style="text;html=1;strokeColor=none;fillColor=none;align=center;verticalAlign=middle;whiteSpace=wrap;rounded=0;fontSize=16;" vertex="1" parent="249">
                    <mxGeometry x="354.5" y="450" width="77.75" height="30" as="geometry"/>
                </mxCell>
                <mxCell id="338" value="" style="rounded=1;whiteSpace=wrap;html=1;strokeColor=default;fontSize=16;" vertex="1" parent="249">
                    <mxGeometry x="503.25" y="455" width="38.75" height="20" as="geometry"/>
                </mxCell>
                <mxCell id="339" value="Quantity:" style="text;html=1;strokeColor=none;fillColor=none;align=center;verticalAlign=middle;whiteSpace=wrap;rounded=0;fontSize=16;" vertex="1" parent="249">
                    <mxGeometry x="432.25" y="450" width="64.75" height="30" as="geometry"/>
                </mxCell>
                <mxCell id="340" value="&lt;font style=&quot;font-size: 16px;&quot;&gt;Add to Cart&lt;/font&gt;" style="rounded=1;html=1;shadow=0;dashed=0;whiteSpace=wrap;fontSize=10;fillColor=#666666;align=center;strokeColor=#4D4D4D;fontColor=#ffffff;movable=1;resizable=1;rotatable=1;deletable=1;editable=1;connectable=1;" vertex="1" parent="249">
                    <mxGeometry x="556" y="455" width="84" height="20" as="geometry"/>
                </mxCell>
                <mxCell id="341" value="(Product name)" style="text;html=1;strokeColor=none;fillColor=none;align=center;verticalAlign=middle;whiteSpace=wrap;rounded=0;fontSize=16;" vertex="1" parent="249">
                    <mxGeometry x="26.25" y="490" width="139.75" height="30" as="geometry"/>
                </mxCell>
                <mxCell id="342" value="(category type)" style="text;html=1;strokeColor=none;fillColor=none;align=center;verticalAlign=middle;whiteSpace=wrap;rounded=0;fontSize=16;" vertex="1" parent="249">
                    <mxGeometry x="166" y="490" width="139.75" height="30" as="geometry"/>
                </mxCell>
                <mxCell id="343" value="(price)" style="text;html=1;strokeColor=none;fillColor=none;align=center;verticalAlign=middle;whiteSpace=wrap;rounded=0;fontSize=16;" vertex="1" parent="249">
                    <mxGeometry x="354.5" y="490" width="77.75" height="30" as="geometry"/>
                </mxCell>
                <mxCell id="344" value="" style="rounded=1;whiteSpace=wrap;html=1;strokeColor=default;fontSize=16;" vertex="1" parent="249">
                    <mxGeometry x="503.25" y="495" width="38.75" height="20" as="geometry"/>
                </mxCell>
                <mxCell id="345" value="Quantity:" style="text;html=1;strokeColor=none;fillColor=none;align=center;verticalAlign=middle;whiteSpace=wrap;rounded=0;fontSize=16;" vertex="1" parent="249">
                    <mxGeometry x="432.25" y="490" width="64.75" height="30" as="geometry"/>
                </mxCell>
                <mxCell id="346" value="&lt;font style=&quot;font-size: 16px;&quot;&gt;Add to Cart&lt;/font&gt;" style="rounded=1;html=1;shadow=0;dashed=0;whiteSpace=wrap;fontSize=10;fillColor=#666666;align=center;strokeColor=#4D4D4D;fontColor=#ffffff;movable=1;resizable=1;rotatable=1;deletable=1;editable=1;connectable=1;" vertex="1" parent="249">
                    <mxGeometry x="556" y="495" width="84" height="20" as="geometry"/>
                </mxCell>
                <mxCell id="272" value="" style="strokeWidth=1;shadow=0;dashed=0;align=center;html=1;shape=mxgraph.mockup.containers.browserWindow;rSize=0;strokeColor=#666666;strokeColor2=#008cff;strokeColor3=#c4c4c4;mainText=,;recursiveResize=0;" vertex="1" parent="1">
                    <mxGeometry x="692.5" y="1920" width="647.5" height="812" as="geometry"/>
                </mxCell>
                <mxCell id="273" value="Page 1" style="strokeWidth=1;shadow=0;dashed=0;align=center;html=1;shape=mxgraph.mockup.containers.anchor;fontSize=17;fontColor=#666666;align=left;strokeColor=default;" vertex="1" parent="272">
                    <mxGeometry x="60" y="12" width="110" height="26" as="geometry"/>
                </mxCell>
                <mxCell id="274" value="https://www.draw.io" style="strokeWidth=1;shadow=0;dashed=0;align=center;html=1;shape=mxgraph.mockup.containers.anchor;rSize=0;fontSize=17;fontColor=#666666;align=left;strokeColor=default;" vertex="1" parent="272">
                    <mxGeometry x="130" y="60" width="250" height="26" as="geometry"/>
                </mxCell>
                <mxCell id="275" value="&lt;span style=&quot;font-size: 31px;&quot;&gt;The Farmer's E-Market&lt;/span&gt;" style="rounded=1;whiteSpace=wrap;html=1;strokeColor=default;" vertex="1" parent="272">
                    <mxGeometry x="55" y="130" width="565" height="110" as="geometry"/>
                </mxCell>
                <mxCell id="276" value="Cart" style="html=1;shadow=0;dashed=0;shape=mxgraph.bootstrap.rrect;rSize=5;strokeColor=none;strokeWidth=1;fillColor=none;fontColor=#0085FC;whiteSpace=wrap;align=center;verticalAlign=middle;spacingLeft=0;fontStyle=0;fontSize=16;spacing=5;" vertex="1" parent="272">
                    <mxGeometry x="400" y="210" width="50" height="30" as="geometry"/>
                </mxCell>
                <mxCell id="277" value="Account (or signup)&amp;nbsp;" style="html=1;shadow=0;dashed=0;shape=mxgraph.bootstrap.rrect;rSize=5;strokeColor=none;strokeWidth=1;fillColor=none;fontColor=#0085FC;whiteSpace=wrap;align=center;verticalAlign=middle;spacingLeft=0;fontStyle=0;fontSize=16;spacing=5;" vertex="1" parent="272">
                    <mxGeometry x="460" y="205" width="160" height="40" as="geometry"/>
                </mxCell>
                <mxCell id="278" value="Vendors" style="html=1;shadow=0;dashed=0;shape=mxgraph.bootstrap.rrect;rSize=5;strokeColor=none;strokeWidth=1;fillColor=none;fontColor=#0085FC;whiteSpace=wrap;align=center;verticalAlign=middle;spacingLeft=0;fontStyle=0;fontSize=16;spacing=5;" vertex="1" parent="272">
                    <mxGeometry x="90" y="210" width="50" height="30" as="geometry"/>
                </mxCell>
                <mxCell id="280" value="Categories" style="rounded=1;fillColor=#F1F2F4;strokeColor=none;html=1;fontColor=#596780;align=left;fontSize=12;spacingLeft=10;sketch=0;" vertex="1" parent="272">
                    <mxGeometry x="170" y="213.5" width="110" height="23" as="geometry"/>
                </mxCell>
                <mxCell id="281" value="" style="shape=triangle;direction=south;fillColor=#596780;strokeColor=none;html=1;sketch=0;fontSize=16;" vertex="1" parent="280">
                    <mxGeometry x="1" y="0.5" width="12" height="6" relative="1" as="geometry">
                        <mxPoint x="-20" y="-3" as="offset"/>
                    </mxGeometry>
                </mxCell>
                <mxCell id="91" value="&lt;h1&gt;&lt;span style=&quot;white-space: pre;&quot;&gt;&#9;&lt;/span&gt;&lt;span style=&quot;white-space: pre;&quot;&gt;&#9;&lt;/span&gt;&lt;span style=&quot;white-space: pre;&quot;&gt;&#9;&lt;/span&gt;&lt;span style=&quot;white-space: pre;&quot;&gt;&#9;&lt;/span&gt;Vendors&lt;/h1&gt;&lt;div&gt;#Logo or image - VENDOR A - description&lt;/div&gt;&lt;div&gt;&lt;br&gt;&lt;/div&gt;&lt;div&gt;#Logo or image - VENDOR B - description&lt;br&gt;&lt;/div&gt;&lt;div&gt;&lt;br&gt;&lt;/div&gt;&lt;div&gt;#Logo or image - VENDOR C - description&lt;br&gt;&lt;/div&gt;&lt;div&gt;&lt;br&gt;&lt;/div&gt;&lt;div&gt;#Logo or image - VENDOR D - description&lt;br&gt;&lt;/div&gt;" style="text;html=1;strokeColor=none;fillColor=none;spacing=5;spacingTop=-20;whiteSpace=wrap;overflow=hidden;rounded=0;" parent="272" vertex="1">
                    <mxGeometry x="63.75" y="280" width="522.5" height="240" as="geometry"/>
                </mxCell>
                <mxCell id="294" value="" style="strokeWidth=1;shadow=0;dashed=0;align=center;html=1;shape=mxgraph.mockup.containers.browserWindow;rSize=0;strokeColor=#666666;strokeColor2=#008cff;strokeColor3=#c4c4c4;mainText=,;recursiveResize=0;" vertex="1" parent="1">
                    <mxGeometry x="13.75" y="2780" width="670" height="800" as="geometry"/>
                </mxCell>
                <mxCell id="295" value="Page 1" style="strokeWidth=1;shadow=0;dashed=0;align=center;html=1;shape=mxgraph.mockup.containers.anchor;fontSize=17;fontColor=#666666;align=left;strokeColor=default;" vertex="1" parent="294">
                    <mxGeometry x="60" y="12" width="110" height="26" as="geometry"/>
                </mxCell>
                <mxCell id="296" value="https://www.draw.io" style="strokeWidth=1;shadow=0;dashed=0;align=center;html=1;shape=mxgraph.mockup.containers.anchor;rSize=0;fontSize=17;fontColor=#666666;align=left;strokeColor=default;" vertex="1" parent="294">
                    <mxGeometry x="130" y="60" width="250" height="26" as="geometry"/>
                </mxCell>
                <mxCell id="297" value="&lt;span style=&quot;font-size: 31px;&quot;&gt;The Farmer's E-Market&lt;/span&gt;" style="rounded=1;whiteSpace=wrap;html=1;strokeColor=default;" vertex="1" parent="294">
                    <mxGeometry x="55" y="130" width="565" height="110" as="geometry"/>
                </mxCell>
                <mxCell id="298" value="Cart" style="html=1;shadow=0;dashed=0;shape=mxgraph.bootstrap.rrect;rSize=5;strokeColor=none;strokeWidth=1;fillColor=none;fontColor=#0085FC;whiteSpace=wrap;align=center;verticalAlign=middle;spacingLeft=0;fontStyle=0;fontSize=16;spacing=5;" vertex="1" parent="294">
                    <mxGeometry x="400" y="210" width="50" height="30" as="geometry"/>
                </mxCell>
                <mxCell id="299" value="Account (or signup)&amp;nbsp;" style="html=1;shadow=0;dashed=0;shape=mxgraph.bootstrap.rrect;rSize=5;strokeColor=none;strokeWidth=1;fillColor=none;fontColor=#0085FC;whiteSpace=wrap;align=center;verticalAlign=middle;spacingLeft=0;fontStyle=0;fontSize=16;spacing=5;" vertex="1" parent="294">
                    <mxGeometry x="460" y="205" width="160" height="40" as="geometry"/>
                </mxCell>
                <mxCell id="300" value="Vendors" style="html=1;shadow=0;dashed=0;shape=mxgraph.bootstrap.rrect;rSize=5;strokeColor=none;strokeWidth=1;fillColor=none;fontColor=#0085FC;whiteSpace=wrap;align=center;verticalAlign=middle;spacingLeft=0;fontStyle=0;fontSize=16;spacing=5;" vertex="1" parent="294">
                    <mxGeometry x="90" y="210" width="50" height="30" as="geometry"/>
                </mxCell>
                <mxCell id="302" value="Categories" style="rounded=1;fillColor=#F1F2F4;strokeColor=none;html=1;fontColor=#596780;align=left;fontSize=12;spacingLeft=10;sketch=0;" vertex="1" parent="294">
                    <mxGeometry x="170" y="213.5" width="110" height="23" as="geometry"/>
                </mxCell>
                <mxCell id="303" value="" style="shape=triangle;direction=south;fillColor=#596780;strokeColor=none;html=1;sketch=0;fontSize=16;" vertex="1" parent="302">
                    <mxGeometry x="1" y="0.5" width="12" height="6" relative="1" as="geometry">
                        <mxPoint x="-20" y="-3" as="offset"/>
                    </mxGeometry>
                </mxCell>
                <mxCell id="347" value="&lt;u&gt;Inventory&lt;/u&gt;" style="text;html=1;strokeColor=none;fillColor=none;align=center;verticalAlign=middle;whiteSpace=wrap;rounded=0;fontSize=16;" vertex="1" parent="294">
                    <mxGeometry x="55" y="350" width="139.75" height="30" as="geometry"/>
                </mxCell>
                <mxCell id="360" value="&lt;font style=&quot;font-size: 16px;&quot;&gt;Add a Product&lt;/font&gt;" style="rounded=1;html=1;shadow=0;dashed=0;whiteSpace=wrap;fontSize=10;fillColor=#666666;align=center;strokeColor=#4D4D4D;fontColor=#ffffff;movable=1;resizable=1;rotatable=1;deletable=1;editable=1;connectable=1;" vertex="1" parent="294">
                    <mxGeometry x="170" y="285" width="127.5" height="20" as="geometry"/>
                </mxCell>
                <mxCell id="372" value="&lt;u&gt;Sales Summary&lt;/u&gt;" style="text;html=1;strokeColor=none;fillColor=none;align=center;verticalAlign=middle;whiteSpace=wrap;rounded=0;fontSize=16;" vertex="1" parent="294">
                    <mxGeometry x="440.13" y="350" width="139.75" height="30" as="geometry"/>
                </mxCell>
                <mxCell id="373" value="All Sales" style="html=1;shadow=0;dashed=0;shape=mxgraph.bootstrap.rrect;rSize=5;strokeColor=none;strokeWidth=1;fillColor=none;fontColor=#0085FC;whiteSpace=wrap;align=center;verticalAlign=middle;spacingLeft=0;fontStyle=0;fontSize=16;spacing=5;" vertex="1" parent="294">
                    <mxGeometry x="373.13" y="285" width="103.75" height="30" as="geometry"/>
                </mxCell>
                <mxCell id="374" value="Product&lt;span style=&quot;white-space: pre;&quot;&gt;&#9;&lt;/span&gt;price&lt;span style=&quot;white-space: pre;&quot;&gt;&#9;&lt;/span&gt;quantity&lt;span style=&quot;white-space: pre;&quot;&gt;&#9;&lt;/span&gt;" style="text;html=1;strokeColor=none;fillColor=none;align=center;verticalAlign=middle;whiteSpace=wrap;rounded=0;fontSize=16;" vertex="1" parent="294">
                    <mxGeometry x="26.25" y="390" width="215" height="30" as="geometry"/>
                </mxCell>
                <mxCell id="375" value="&lt;span style=&quot;font-size: 16px;&quot;&gt;update&lt;/span&gt;" style="rounded=1;html=1;shadow=0;dashed=0;whiteSpace=wrap;fontSize=10;fillColor=#666666;align=center;strokeColor=#4D4D4D;fontColor=#ffffff;movable=1;resizable=1;rotatable=1;deletable=1;editable=1;connectable=1;" vertex="1" parent="294">
                    <mxGeometry x="238.75" y="395" width="61.25" height="20" as="geometry"/>
                </mxCell>
                <mxCell id="378" value="&lt;u&gt;Products Sold&lt;span style=&quot;white-space: pre;&quot;&gt;&#9;&lt;/span&gt;&lt;span style=&quot;white-space: pre;&quot;&gt;&#9;&lt;/span&gt;Total Revenue&lt;br&gt;&lt;/u&gt;" style="text;html=1;strokeColor=none;fillColor=none;align=center;verticalAlign=middle;whiteSpace=wrap;rounded=0;fontSize=16;" vertex="1" parent="294">
                    <mxGeometry x="373.13" y="390" width="273.75" height="30" as="geometry"/>
                </mxCell>
                <mxCell id="379" value="" style="endArrow=classic;html=1;fontSize=16;exitX=0;exitY=0.25;exitDx=0;exitDy=0;entryX=1;entryY=0.5;entryDx=0;entryDy=0;" edge="1" parent="1" source="360" target="380">
                    <mxGeometry width="50" height="50" relative="1" as="geometry">
                        <mxPoint x="780" y="3030" as="sourcePoint"/>
                        <mxPoint x="-10" y="3040" as="targetPoint"/>
                    </mxGeometry>
                </mxCell>
                <mxCell id="380" value="" style="rounded=1;whiteSpace=wrap;html=1;strokeColor=default;fontSize=16;" vertex="1" parent="1">
                    <mxGeometry x="-210" y="2950" width="180" height="204" as="geometry"/>
                </mxCell>
                <mxCell id="381" value="pop-up to add a product" style="text;html=1;strokeColor=none;fillColor=none;align=center;verticalAlign=middle;whiteSpace=wrap;rounded=0;fontSize=16;" vertex="1" parent="1">
                    <mxGeometry x="-197.5" y="2980" width="155" height="120" as="geometry"/>
                </mxCell>
                <mxCell id="382" value="" style="strokeWidth=1;shadow=0;dashed=0;align=center;html=1;shape=mxgraph.mockup.containers.browserWindow;rSize=0;strokeColor=#666666;strokeColor2=#008cff;strokeColor3=#c4c4c4;mainText=,;recursiveResize=0;fontSize=16;" vertex="1" parent="1">
                    <mxGeometry x="700" y="2780" width="640" height="800" as="geometry"/>
                </mxCell>
                <mxCell id="383" value="Page 1" style="strokeWidth=1;shadow=0;dashed=0;align=center;html=1;shape=mxgraph.mockup.containers.anchor;fontSize=17;fontColor=#666666;align=left;strokeColor=default;" vertex="1" parent="382">
                    <mxGeometry x="60" y="12" width="110" height="26" as="geometry"/>
                </mxCell>
                <mxCell id="384" value="https://www.draw.io" style="strokeWidth=1;shadow=0;dashed=0;align=center;html=1;shape=mxgraph.mockup.containers.anchor;rSize=0;fontSize=17;fontColor=#666666;align=left;strokeColor=default;" vertex="1" parent="382">
                    <mxGeometry x="130" y="60" width="250" height="26" as="geometry"/>
                </mxCell>
                <mxCell id="385" value="&lt;span style=&quot;font-size: 31px;&quot;&gt;The Farmer's E-Market&lt;/span&gt;" style="rounded=1;whiteSpace=wrap;html=1;strokeColor=default;" vertex="1" parent="382">
                    <mxGeometry x="37.5" y="130" width="565" height="110" as="geometry"/>
                </mxCell>
                <mxCell id="386" value="Cart" style="html=1;shadow=0;dashed=0;shape=mxgraph.bootstrap.rrect;rSize=5;strokeColor=none;strokeWidth=1;fillColor=none;fontColor=#0085FC;whiteSpace=wrap;align=center;verticalAlign=middle;spacingLeft=0;fontStyle=0;fontSize=16;spacing=5;" vertex="1" parent="382">
                    <mxGeometry x="382.5" y="210" width="50" height="30" as="geometry"/>
                </mxCell>
                <mxCell id="387" value="Account (or signup)&amp;nbsp;" style="html=1;shadow=0;dashed=0;shape=mxgraph.bootstrap.rrect;rSize=5;strokeColor=none;strokeWidth=1;fillColor=none;fontColor=#0085FC;whiteSpace=wrap;align=center;verticalAlign=middle;spacingLeft=0;fontStyle=0;fontSize=16;spacing=5;" vertex="1" parent="382">
                    <mxGeometry x="442.5" y="205" width="160" height="40" as="geometry"/>
                </mxCell>
                <mxCell id="388" value="Vendors" style="html=1;shadow=0;dashed=0;shape=mxgraph.bootstrap.rrect;rSize=5;strokeColor=none;strokeWidth=1;fillColor=none;fontColor=#0085FC;whiteSpace=wrap;align=center;verticalAlign=middle;spacingLeft=0;fontStyle=0;fontSize=16;spacing=5;" vertex="1" parent="382">
                    <mxGeometry x="72.5" y="210" width="50" height="30" as="geometry"/>
                </mxCell>
                <mxCell id="389" value="Categories" style="rounded=1;fillColor=#F1F2F4;strokeColor=none;html=1;fontColor=#596780;align=left;fontSize=12;spacingLeft=10;sketch=0;" vertex="1" parent="382">
                    <mxGeometry x="152.5" y="213.5" width="110" height="23" as="geometry"/>
                </mxCell>
                <mxCell id="390" value="" style="shape=triangle;direction=south;fillColor=#596780;strokeColor=none;html=1;sketch=0;fontSize=16;" vertex="1" parent="389">
                    <mxGeometry x="1" y="0.5" width="12" height="6" relative="1" as="geometry">
                        <mxPoint x="-20" y="-3" as="offset"/>
                    </mxGeometry>
                </mxCell>
                <mxCell id="391" value="&lt;u&gt;All Sales&lt;/u&gt;" style="text;html=1;strokeColor=none;fillColor=none;align=center;verticalAlign=middle;whiteSpace=wrap;rounded=0;fontSize=16;" vertex="1" parent="382">
                    <mxGeometry x="250.13" y="280" width="139.75" height="30" as="geometry"/>
                </mxCell>
                <mxCell id="392" value="Product&lt;span style=&quot;white-space: pre;&quot;&gt;&#9;&lt;/span&gt;Quantity&lt;span style=&quot;white-space: pre;&quot;&gt;&#9;&lt;/span&gt;Revenue" style="text;html=1;strokeColor=none;fillColor=none;align=center;verticalAlign=middle;whiteSpace=wrap;rounded=0;fontSize=16;" vertex="1" parent="382">
                    <mxGeometry x="37.5" y="385" width="290" height="30" as="geometry"/>
                </mxCell>
            </root>
        </mxGraphModel>
    </diagram>
</mxfile>